<svg xmlns="http://www.w3.org/2000/svg" width="512" height="366" viewBox="0 0 512 366" version="1.1"><path d="M 204.636 2.636 L 202 5.273 202 44.682 L 202 84.091 204.455 86.545 L 206.909 89 262 89 L 317.091 89 319.545 86.545 L 322 84.091 322 44.500 L 322 4.909 319.545 2.455 L 317.091 0 262.182 0 L 207.273 0 204.636 2.636 M 276.053 11.436 C 275.168 12.502, 275.146 13.404, 275.966 14.936 C 277.321 17.469, 280.594 17.628, 281.880 15.224 C 283.932 11.391, 278.838 8.080, 276.053 11.436 M 289.309 11.636 C 288.482 13.792, 290.259 16.500, 292.500 16.500 C 294.741 16.500, 296.518 13.792, 295.691 11.636 C 294.870 9.497, 290.130 9.497, 289.309 11.636 M 303.120 11.776 C 301.878 14.096, 303.488 17, 306.015 17 C 308.518 17, 310.139 14, 308.866 11.724 C 307.611 9.482, 304.332 9.511, 303.120 11.776 M 208.235 53.250 L 208.500 83.500 261.387 83.759 C 299.611 83.946, 314.652 83.704, 315.637 82.886 C 316.731 81.978, 317 75.961, 317 52.378 L 317 23 262.485 23 L 207.971 23 208.235 53.250 M 263.481 31.250 C 262.756 33.237, 253.017 71.413, 253.008 72.305 C 253.004 72.747, 255.094 72.972, 257.653 72.805 L 262.306 72.500 267.617 52 C 270.537 40.725, 272.943 31.163, 272.963 30.750 C 273.028 29.435, 263.969 29.913, 263.481 31.250 M 236.500 41.772 L 226.500 47.500 226.206 52.512 L 225.912 57.523 235.927 63.262 C 241.436 66.418, 246.405 69, 246.971 69 C 247.558 69, 248 66.507, 248 63.198 L 248 57.395 242.750 55.558 C 239.863 54.547, 237.141 53.402, 236.702 53.012 C 236.263 52.622, 238.625 51.311, 241.952 50.098 L 248 47.893 248 41.946 C 248 38.676, 247.662 36.010, 247.250 36.022 C 246.838 36.034, 242 38.622, 236.500 41.772 M 276 41.886 L 276 47.773 282.546 50.193 L 289.092 52.612 282.796 55.056 L 276.500 57.500 276.200 63.250 C 276 67.090, 276.282 69, 277.050 69 C 277.682 69, 282.655 66.478, 288.100 63.395 L 298 57.789 297.983 52.645 L 297.966 47.500 287.637 41.750 C 281.955 38.587, 277.013 36, 276.653 36 C 276.294 36, 276 38.649, 276 41.886 M 358.388 67.942 C 355.287 69.251, 351.995 73.885, 352.035 76.885 C 352.097 81.447, 354.290 83.794, 365.026 90.794 C 377.777 99.107, 390.567 109.741, 402.334 121.814 C 407.900 127.524, 412.220 131.109, 414.011 131.502 C 420.154 132.852, 426.528 126.215, 425.294 119.757 C 424.067 113.337, 397.865 89.060, 377.435 75.415 C 366.208 67.915, 362.188 66.339, 358.388 67.942 M 152 75.338 C 137.157 81.895, 114.048 97.379, 102.013 108.831 C 95.278 115.241, 94.512 118.047, 97.956 123.696 C 99.358 125.994, 100.922 127.082, 103.529 127.571 C 108.195 128.447, 109.843 127.619, 119.500 119.549 C 130.855 110.061, 146.814 99.628, 158.712 93.914 C 164.329 91.216, 169.392 88.137, 169.962 87.070 C 172.009 83.246, 171.202 78.048, 168.077 74.923 C 164.277 71.123, 161.370 71.198, 152 75.338 M 243.782 131.197 C 242.316 132.308, 242.213 133.152, 243.078 136.931 C 244.725 144.130, 244.275 144.861, 236.297 147.958 C 227.936 151.202, 213.390 160.567, 209.421 165.260 C 207.914 167.042, 205.515 170.975, 204.090 174 C 201.600 179.288, 201.488 180.313, 201.180 200.618 C 200.863 221.578, 200.843 221.746, 198.524 222.987 C 194.472 225.156, 192.626 229.938, 193.237 236.682 C 193.892 243.906, 195.151 246.445, 208.617 267.708 C 225.661 294.622, 231.870 301.585, 244 307.390 C 250.158 310.336, 251.132 310.500, 262.500 310.500 C 273.927 310.500, 274.823 310.347, 281.259 307.299 C 288.969 303.646, 297.280 296.254, 303.516 287.500 C 311.690 276.027, 329.076 246.469, 330.534 241.568 C 333.192 232.627, 331.640 224.973, 326.861 223.456 C 324.725 222.778, 324.707 222.575, 325.366 206.509 C 326.363 182.183, 324.439 175.679, 312.539 163.152 C 302.239 152.308, 289.301 143.579, 273.675 136.930 C 261.363 131.690, 246.811 128.900, 243.782 131.197 M 0 149.280 C 0 150.172, 13.009 168.888, 14.096 169.559 C 14.666 169.912, 15.764 169.368, 16.534 168.350 C 18.529 165.715, 25 153.396, 25 152.233 C 25 151.697, 22.413 150.994, 19.250 150.672 C 3.380 149.053, -0 148.808, 0 149.280 M 441.500 150.331 C 421.181 155.538, 404.744 171.762, 399.574 191.716 C 397.575 199.430, 397.554 212.866, 399.528 220.448 C 404.565 239.786, 420.158 255.592, 439.932 261.404 C 448.734 263.991, 463.491 263.556, 472.786 260.436 C 481.999 257.343, 492.495 250.573, 497.969 244.192 C 503.126 238.180, 508.522 227.933, 510.472 220.448 C 512.431 212.926, 512.431 199.074, 510.472 191.552 C 505.770 173.503, 491.688 158.406, 473.432 151.845 C 466.090 149.206, 449.043 148.398, 441.500 150.331 M 32.607 159.335 C 30.730 163.454, 27.350 169.539, 25.097 172.857 C 22.844 176.175, 21 179.178, 21 179.530 C 21 180.557, 38.433 205.944, 39.159 205.973 C 39.920 206.004, 68 157.556, 68 156.212 C 68 155.720, 62.038 154.777, 54.750 154.116 C 47.462 153.456, 40.267 152.675, 38.760 152.380 C 36.178 151.876, 35.823 152.278, 32.607 159.335 M 439.945 156.885 C 431.473 159.596, 424.800 163.627, 418.911 169.590 L 413.568 175 421.669 175 C 429.408 175, 429.850 174.877, 431.552 172.250 C 432.531 170.738, 436.484 166.238, 440.336 162.250 C 444.187 158.262, 446.924 155.024, 446.419 155.054 C 445.914 155.083, 443 155.908, 439.945 156.885 M 469.664 162.250 C 473.516 166.238, 477.469 170.738, 478.448 172.250 C 480.150 174.877, 480.592 175, 488.331 175 L 496.432 175 491.051 169.551 C 485.164 163.591, 477.494 159.070, 469.068 156.595 C 466.081 155.718, 463.418 155, 463.149 155 C 462.881 155, 465.813 158.262, 469.664 162.250 M 59.687 184.250 C 51.671 198.137, 45.466 209.857, 45.899 210.293 C 47.994 212.405, 95.304 238.930, 96.100 238.438 C 97.140 237.796, 100.318 231.939, 99.824 231.576 C 99.646 231.445, 90.725 226.279, 80 220.097 C 69.275 213.914, 59.879 208.251, 59.120 207.512 C 57.008 205.456, 58.486 201, 61.280 201 C 62.513 201, 72.517 206.174, 83.511 212.497 C 94.505 218.821, 103.826 223.996, 104.224 223.997 C 104.623 223.999, 105.688 222.570, 106.592 220.822 C 108.608 216.924, 110.519 218.451, 86.033 204.401 C 75.584 198.405, 66.792 192.874, 66.495 192.109 C 65.660 189.961, 66.900 187.166, 68.981 186.506 C 70.262 186.100, 76.858 189.380, 89.680 196.800 C 100.031 202.790, 109.472 208.204, 110.659 208.832 C 112.581 209.848, 113.043 209.592, 114.863 206.507 L 116.908 203.042 111.204 199.715 C 108.067 197.885, 98.678 192.454, 90.339 187.647 C 82.001 182.840, 74.915 178.220, 74.593 177.381 C 73.739 175.156, 75.758 172, 78.035 172 C 79.116 172, 88.943 177.175, 99.872 183.500 C 110.802 189.825, 120.155 195, 120.656 195 C 121.158 195, 122.393 193.605, 123.400 191.901 C 124.939 189.294, 125.013 188.602, 123.865 187.546 C 122.521 186.309, 75.453 159, 74.665 159 C 74.443 159, 67.703 170.363, 59.687 184.250 M 444.010 166.615 L 436.519 174.500 443.880 174.796 C 447.929 174.959, 451.432 174.902, 451.665 174.669 C 451.898 174.436, 451.956 170.754, 451.794 166.487 L 451.500 158.730 444.010 166.615 M 458 166.784 L 458 175 465.568 175 L 473.136 175 471.146 172.250 C 470.051 170.738, 466.646 167.040, 463.578 164.034 L 458 158.568 458 166.784 M 408.370 184.250 C 406.290 188.271, 404.028 196.575, 404.012 200.250 L 404 203 411.500 203 L 419 203 419.021 200.250 C 419.039 197.932, 421.703 189.396, 424.482 182.750 C 425.142 181.173, 424.465 181, 417.633 181 C 410.091 181, 410.043 181.017, 408.370 184.250 M 429.155 187.250 C 427.534 190.688, 425.766 195.637, 425.225 198.250 L 424.242 203 438.121 203 L 452 203 452 192 L 452 181 442.051 181 L 432.102 181 429.155 187.250 M 458 192 L 458 203 472.019 203 L 486.038 203 485.429 200.250 C 484.224 194.806, 482.686 190.417, 480.347 185.750 L 477.966 181 467.983 181 L 458 181 458 192 M 485.556 182.750 C 487.963 188.222, 490.952 197.877, 490.974 200.250 L 491 203 498.640 203 L 506.280 203 505.712 197.497 C 505.399 194.470, 504.011 189.520, 502.627 186.497 L 500.111 181 492.448 181 C 485.524 181, 484.860 181.169, 485.556 182.750 M 220.500 200.936 C 216.650 202.008, 213.098 202.911, 212.606 202.942 C 211.777 202.996, 212.130 209.600, 213.663 222.750 L 214.275 228 209.860 228 C 203.890 228, 201 230.149, 201 234.589 C 201 239.605, 202.610 242.871, 214.085 261.132 C 230.752 287.655, 236.833 294.808, 246.929 299.762 C 253.939 303.201, 265.058 303.997, 273.166 301.640 C 285.575 298.033, 292.539 290.638, 309.552 263 C 320.869 244.616, 324.303 237.412, 323.802 233.102 C 323.522 230.691, 323.096 230.480, 318 230.223 C 314.975 230.070, 311.977 229.762, 311.338 229.538 C 310.509 229.247, 310.860 226.469, 312.568 219.815 C 313.884 214.692, 314.969 210.447, 314.980 210.383 C 314.991 210.318, 309.262 210.021, 302.250 209.721 C 291.505 209.262, 286.591 208.441, 271 204.500 C 255.108 200.482, 250.738 199.764, 240 199.406 C 229.758 199.063, 226.235 199.340, 220.500 200.936 M 404.283 214.453 C 404.593 217.452, 406.067 222.627, 407.559 225.953 L 410.273 232 417.637 232 C 421.686 232, 425 231.757, 425 231.460 C 425 231.163, 424.122 229.199, 423.048 227.095 C 421.295 223.659, 420.391 220.581, 418.539 211.750 C 417.975 209.061, 417.803 209, 410.841 209 L 403.720 209 404.283 214.453 M 424.583 212.750 C 425.587 218.333, 427.949 225.083, 430.183 228.750 L 432.163 232 442.082 232 L 452 232 452 220.500 L 452 209 437.955 209 L 423.909 209 424.583 212.750 M 458 220.500 L 458 232 467.977 232 C 477.440 232, 478.036 231.875, 479.547 229.569 C 481.779 226.162, 484.639 218.285, 485.472 213.250 L 486.176 209 472.088 209 L 458 209 458 220.500 M 491.655 210.750 C 491.391 211.713, 490.869 214.297, 490.496 216.494 C 490.123 218.691, 488.758 223.097, 487.462 226.285 L 485.107 232.082 492.745 231.791 L 500.383 231.500 502.789 225.508 C 504.112 222.212, 505.439 217.149, 505.737 214.258 L 506.280 209 499.207 209 C 493.321 209, 492.054 209.294, 491.655 210.750 M 416.667 240.496 C 419.648 244.556, 430.073 251.790, 435.996 253.909 C 447.047 257.863, 447.044 257.872, 438.247 248.579 C 433.711 243.788, 430 239.447, 430 238.934 C 430 238.420, 426.587 238, 422.417 238 L 414.833 238 416.667 240.496 M 437 238.574 C 437 239.509, 448.329 251.106, 450.242 252.130 C 451.847 252.988, 452 252.414, 452 245.535 L 452 238 444.500 238 C 440.375 238, 437 238.258, 437 238.574 M 458 245.500 C 458 249.625, 458.350 253, 458.777 253 C 459.755 253, 473 239.707, 473 238.725 C 473 238.326, 469.625 238, 465.500 238 L 458 238 458 245.500 M 472.606 247.600 C 462.987 257.885, 463.073 258.206, 474.282 253.858 C 481.712 250.977, 492.038 243.666, 494.087 239.837 C 494.997 238.137, 494.566 238.003, 488.285 238.044 L 481.500 238.089 472.606 247.600 M 38.923 275.923 C 36.492 278.355, 36.003 279.658, 36.018 283.673 C 36.065 296.075, 41.064 321.169, 47.039 339 C 54.706 361.882, 59.041 367.099, 67.463 363.580 C 72.527 361.464, 74.572 356.554, 72.589 351.274 C 62.342 324.001, 58.178 308.178, 56.067 288.500 C 55.079 279.296, 54.754 278.281, 51.981 275.750 C 47.797 271.931, 42.850 271.997, 38.923 275.923 M 466.500 287.208 C 463.190 289.106, 462.177 291.169, 460.958 298.500 C 458.251 314.780, 453.932 330.352, 448.405 343.762 C 444.252 353.838, 444.184 356.055, 447.898 360.211 C 450.256 362.851, 451.544 363.455, 454.818 363.455 C 461.853 363.455, 463.893 360.288, 471.545 337.500 C 476.035 324.126, 481 302.098, 481 295.547 C 481 288.376, 472.743 283.627, 466.500 287.208 M 217.259 312.936 C 212.891 316.581, 200.201 320.926, 177.992 326.382 C 145.448 334.377, 140.457 336.406, 132.071 345.047 C 128.878 348.336, 120 363.308, 120 365.403 C 120 365.731, 183.900 366, 262 366 C 340.100 366, 404 365.710, 404 365.355 C 404 365, 402.401 361.386, 400.448 357.324 C 395.962 347.998, 388.381 340.239, 379.716 336.103 C 375.861 334.263, 363.438 330.626, 348.447 326.947 C 323.109 320.729, 314.379 317.840, 307.831 313.507 L 304.154 311.074 301.142 317.510 C 288.850 343.777, 254.576 350.003, 232.639 329.953 C 229.317 326.917, 225.868 322.374, 223.582 318.025 C 221.552 314.161, 219.803 311.015, 219.695 311.033 C 219.588 311.052, 218.492 311.908, 217.259 312.936" stroke="none" fill="#eee" fill-rule="evenodd"/></svg>